<svg width="192" height="42" viewBox="0 0 192 42" fill="none" xmlns="http://www.w3.org/2000/svg">
<g clip-path="url(#clip0_2252_121)">
<path d="M128.01 30.5467L127.85 27.6911C127.379 28.7301 126.592 29.5969 125.6 30.1699C124.184 30.9308 122.554 31.2045 120.965 30.9478C119.376 30.6912 117.918 29.9189 116.82 28.7521C115.429 26.9648 114.736 24.7393 114.87 22.4857C114.744 20.2463 115.456 18.0396 116.87 16.2889C117.541 15.5342 118.375 14.9386 119.31 14.5456C120.244 14.1527 121.256 13.9725 122.27 14.0183C123.915 13.9475 125.537 14.4219 126.88 15.3668C127.475 15.8198 127.971 16.3884 128.337 17.038C128.704 17.6875 128.932 18.4042 129.01 19.1444H127.48C127.287 18.0237 126.668 17.0192 125.75 16.3384C124.737 15.6405 123.522 15.2921 122.29 15.3469C121.467 15.3016 120.645 15.4464 119.888 15.7699C119.132 16.0934 118.461 16.5867 117.93 17.2109C116.818 18.7436 116.277 20.6116 116.4 22.4957C116.294 24.3733 116.837 26.2306 117.94 27.7605C118.422 28.3996 119.054 28.9136 119.78 29.2588C120.506 29.6041 121.305 29.7704 122.11 29.7436C122.88 29.7872 123.65 29.6703 124.372 29.4005C125.094 29.1306 125.75 28.7138 126.3 28.177C127.362 26.9571 127.9 25.3733 127.8 23.7648V23.6954H122.42V22.2379H129.22V30.5268L128.01 30.5467ZM134.01 21.9999H138.34C139.488 22.0958 140.638 21.8248 141.62 21.2265C141.971 20.9182 142.245 20.5324 142.418 20.1001C142.592 19.6679 142.661 19.2013 142.62 18.7379C142.625 18.2439 142.516 17.7553 142.3 17.3101C142.094 16.9062 141.783 16.564 141.4 16.3186C141.071 16.1067 140.704 15.9587 140.32 15.8823C139.635 15.7763 138.942 15.7332 138.25 15.7534H134.01V21.9999ZM132.52 30.5467V14.3951H137.95C138.866 14.374 139.782 14.4238 140.69 14.5438C141.205 14.6276 141.703 14.7987 142.16 15.0495C142.791 15.3887 143.306 15.9064 143.64 16.5367C143.995 17.1983 144.174 17.9389 144.16 18.6883C144.192 19.5749 143.958 20.451 143.49 21.2067C143.01 21.9041 142.304 22.4183 141.49 22.6642C142.07 22.8169 142.576 23.1681 142.92 23.6557C143.311 24.5164 143.519 25.4481 143.53 26.3923L143.74 28.8115C143.759 29.131 143.816 29.4471 143.91 29.7535C143.977 29.965 144.098 30.156 144.26 30.3087V30.5268H142.6C142.497 30.3162 142.423 30.0928 142.38 29.8625C142.309 29.5358 142.263 29.2044 142.24 28.871L142.06 26.7294C142.103 25.7301 141.823 24.7433 141.26 23.9135C140.52 23.4105 139.62 23.1919 138.73 23.2988H133.97V30.5268L132.52 30.5467ZM148.02 22.4857C147.917 24.3644 148.479 26.2196 149.61 27.7308C150.121 28.3728 150.778 28.8868 151.527 29.2312C152.275 29.5757 153.095 29.741 153.92 29.7138C154.749 29.7409 155.573 29.5758 156.326 29.2316C157.08 28.8873 157.742 28.3734 158.26 27.7308C159.405 26.2264 159.972 24.367 159.86 22.4857C159.967 20.5959 159.4 18.7288 158.26 17.2109C157.722 16.5989 157.058 16.1083 156.313 15.7722C155.568 15.436 154.758 15.262 153.94 15.262C153.121 15.262 152.312 15.436 151.567 15.7722C150.821 16.1083 150.158 16.5989 149.62 17.2109C148.484 18.7276 147.918 20.5897 148.02 22.4758M146.47 22.4758C146.345 20.2275 147.056 18.0118 148.47 16.2492C149.177 15.5242 150.023 14.9476 150.96 14.5538C151.896 14.16 152.903 13.957 153.92 13.957C154.937 13.957 155.943 14.16 156.88 14.5538C157.816 14.9476 158.663 15.5242 159.37 16.2492C160.683 18.0626 161.389 20.2386 161.389 22.4709C161.389 24.7031 160.683 26.8792 159.37 28.6925C158.663 29.4176 157.816 29.9942 156.88 30.388C155.943 30.7818 154.937 30.9847 153.92 30.9847C152.903 30.9847 151.896 30.7818 150.96 30.388C150.023 29.9942 149.177 29.4176 148.47 28.6925C147.054 26.9348 146.342 24.7215 146.47 22.4758ZM164.21 14.3852H165.71V24.558C165.585 25.9463 165.977 27.332 166.81 28.4546C167.84 29.2322 169.1 29.6532 170.395 29.6532C171.69 29.6532 172.949 29.2322 173.98 28.4546C174.825 27.3372 175.224 25.9494 175.1 24.558V14.3951H176.6V24.7761C176.663 25.615 176.558 26.458 176.29 27.2563C176.022 28.0545 175.597 28.7921 175.04 29.4263C174.411 29.9837 173.675 30.4098 172.876 30.6789C172.077 30.9481 171.231 31.0549 170.39 30.9928C169.553 31.0577 168.711 30.9522 167.917 30.6828C167.122 30.4134 166.391 29.9858 165.77 29.4263C165.212 28.7924 164.787 28.0549 164.519 27.2565C164.251 26.4582 164.146 25.6151 164.21 24.7761V14.3852ZM181.6 22.2379H185.09C186.296 22.3361 187.503 22.0662 188.55 21.4645C188.917 21.1623 189.204 20.776 189.387 20.3389C189.57 19.9019 189.643 19.4272 189.6 18.956C189.637 18.5086 189.572 18.0585 189.41 17.6395C189.247 17.2205 188.99 16.8435 188.66 16.5367C187.797 15.963 186.765 15.694 185.73 15.7733H181.6V22.2379ZM180.11 30.5962V14.3951H185.8C187.228 14.2898 188.646 14.6942 189.8 15.5353C190.263 15.9681 190.623 16.498 190.853 17.0864C191.083 17.6749 191.178 18.3069 191.13 18.9362C191.181 19.5918 191.072 20.25 190.811 20.8544C190.549 21.4589 190.144 21.9914 189.63 22.4064C188.268 23.26 186.666 23.6563 185.06 23.5367H181.6V30.5467L180.11 30.5962Z" fill="white"/>
<path fill-rule="evenodd" clip-rule="evenodd" d="M21.5998 42.0014L20.6598 15.7265L2.25977 24.0056L21.5998 11.8398L40.9298 24.0056L22.5298 15.7265L21.5998 42.0014Z" fill="white"/>
<path fill-rule="evenodd" clip-rule="evenodd" d="M42.0403 30.8375V19.3262L43.1903 30.9962L23.0703 36.9353L23.4203 17.6406L40.4003 24.1052L27.8503 20.7936V33.7922L42.0403 30.8375Z" fill="white"/>
<path fill-rule="evenodd" clip-rule="evenodd" d="M20.9099 11.2447L15.3398 14.8934V9.64837L20.9099 5.24609V11.2447Z" fill="white"/>
<path fill-rule="evenodd" clip-rule="evenodd" d="M1.14999 30.8375V19.3262L0 30.9962L20.13 36.9353L19.77 17.6406L2.78999 24.1052L15.34 20.7936V33.7922L1.14999 30.8375Z" fill="white"/>
<path fill-rule="evenodd" clip-rule="evenodd" d="M22.2793 11.2437L27.8493 14.8924V4.40228L22.2793 0V11.2437Z" fill="white"/>
<path d="M61.9901 23.4491C61.421 22.7037 60.5952 22.192 59.6701 22.0114C60.3868 21.7399 61.0062 21.2637 61.4501 20.6432C61.88 20.0187 62.1036 19.2773 62.0901 18.5213C62.0963 17.8063 61.9136 17.1021 61.5601 16.4788C61.2247 15.8784 60.7257 15.3836 60.1201 15.0511C59.6816 14.7985 59.2004 14.6272 58.7001 14.5454C57.9624 14.433 57.2163 14.3832 56.4701 14.3967H51.0801V30.5483H55.5801C57.0601 30.5483 58.1301 30.5185 58.7901 30.459C59.2943 30.4378 59.7928 30.3443 60.2701 30.1814C61.0495 29.8876 61.7124 29.3521 62.1601 28.6545C62.633 27.8603 62.8681 26.9491 62.838 26.0273C62.8079 25.1055 62.5138 24.2113 61.9901 23.4491ZM52.5701 15.7253H56.2001C57.3761 15.6234 58.5574 15.8501 59.6101 16.3797C59.9117 16.6768 60.1501 17.0309 60.3112 17.421C60.4724 17.8111 60.5531 18.2293 60.5484 18.6508C60.5437 19.0723 60.4539 19.4886 60.2841 19.8751C60.1144 20.2616 59.8682 20.6104 59.5601 20.9009C58.4764 21.4349 57.266 21.6647 56.0601 21.5653H52.5701V15.7253ZM60.3501 28.5157C59.3188 29.0777 58.1422 29.3227 56.9701 29.2196H52.5701V22.8145H57.0901C58.2011 22.7377 59.3062 23.0308 60.2301 23.6474C60.5909 23.9488 60.8749 24.3304 61.0591 24.7611C61.2433 25.1918 61.3224 25.6595 61.2901 26.1262C61.3379 26.57 61.2775 27.0187 61.1139 27.4345C60.9503 27.8504 60.6883 28.2212 60.3501 28.5157Z" fill="white"/>
<path d="M67.2197 14.3867H65.6797V30.5383H67.2197V14.3867Z" fill="white"/>
<path d="M74.3998 30.5482V15.7153H69.3398V14.3867H80.9898V15.7153H75.9298V30.5482H74.3998Z" fill="white"/>
<path d="M84.6396 14.3867H83.0996V30.5383H84.6396V14.3867Z" fill="white"/>
<path d="M100.361 18.054C99.9026 16.9121 99.0991 15.9388 98.0606 15.2679C97.5263 14.9432 96.9366 14.718 96.3206 14.6036C95.3295 14.4406 94.325 14.3709 93.3206 14.3954H88.3906V30.547H92.8706C93.9198 30.5689 94.9691 30.5159 96.0106 30.3883C96.6163 30.3058 97.2042 30.1249 97.7506 29.8529C98.8922 29.2346 99.7904 28.2532 100.301 27.0668C100.919 25.6024 101.212 24.0232 101.161 22.4365C101.191 20.9374 100.919 19.4474 100.361 18.054ZM98.9806 26.3728C98.6317 27.3025 97.9809 28.0908 97.1306 28.6135C96.6932 28.8528 96.2154 29.0107 95.7206 29.0796C94.8251 29.1893 93.9228 29.2357 93.0206 29.2184H89.8606V15.724H92.8606C93.8433 15.6977 94.8266 15.7507 95.8006 15.8827C96.3212 15.9698 96.8182 16.1622 97.2606 16.4478C98.073 16.9962 98.6864 17.7886 99.0106 18.7084C99.4372 19.9216 99.6372 21.2018 99.6006 22.4861C99.6383 23.8085 99.4281 25.1264 98.9806 26.3728Z" fill="white"/>
<path d="M105.79 14.3867H104.25V30.5383H105.79V14.3867Z" fill="white"/>
</g>
<defs>
<clipPath id="clip0_2252_121">
<rect width="191.142" height="42" fill="white"/>
</clipPath>
</defs>
</svg>
